<?xml version="1.0" encoding="UTF-8"?>
<svg width="277px" height="23px" viewBox="0 0 277 23" version="1.1" xmlns="http://www.w3.org/2000/svg" xmlns:xlink="http://www.w3.org/1999/xlink">
    <title>Bitcoin TitleFi</title>
    <g id="Page-1" stroke="none" stroke-width="1" fill="none" fill-rule="evenodd">
        <g id="Bitcoin-TitleFi" transform="translate(-200.000000, -37.000000)" fill-rule="nonzero">
            <g transform="translate(200.100000, 37.550000)">
                <path d="M17.88,10.47 L17.88,10.32 C20.16,9.66 21.42,8.31 21.42,5.85 C21.42,1.62 18.3,0.45 13.26,0.45 L0,0.45 L0,21.45 L12.63,21.45 C19.2,21.45 22.2,20.01 22.2,15.27 C22.2,12.57 20.64,11.13 17.88,10.47 Z M13.5,4.17 C15.45,4.17 16.77,4.83 16.77,6.63 C16.77,8.43 15.6,9.12 13.5,9.12 L4.83,9.12 L4.83,4.17 L13.5,4.17 Z M13.62,17.76 L4.83,17.76 L4.83,12.57 L13.62,12.57 C15.99,12.57 17.28,13.14 17.28,14.91 C17.28,16.68 16.41,17.76 13.62,17.76 Z" id="形状" fill="#FFFFFF"></path>
                <polygon id="路径" fill="#FFFFFF" points="25.2 0.45 25.2 21.45 30.03 21.45 30.03 0.45"></polygon>
                <polygon id="路径" fill="#FFFFFF" points="53.76 0.45 33.03 0.45 33.03 4.17 40.98 4.17 40.98 21.45 45.81 21.45 45.81 4.17 53.76 4.17"></polygon>
                <path d="M66.72,0 C61.26,0 55.98,2.52 54.96,8.76 L60,8.76 C60.63,6.03 62.4,3.66 66.72,3.66 C71.79,3.66 73.74,6.87 73.74,10.95 C73.74,15 71.79,18.21 66.72,18.21 C62.4,18.21 60.63,15.84 60,13.11 L54.96,13.11 C55.98,19.35 61.26,21.87 66.72,21.87 C72.78,21.87 78.69,18.84 78.69,10.95 C78.69,3.06 72.78,0 66.72,0 Z" id="路径" fill="#FFFFFF" transform="translate(66.825000, 10.935000) scale(-1, 1) translate(-66.825000, -10.935000) "></path>
                <path d="M93.03,0.03 C86.97,0.03 80.49,2.94 80.49,10.95 C80.49,18.99 86.97,21.9 93.03,21.9 C99.09,21.9 105.54,18.99 105.54,10.95 C105.54,2.94 99.09,0.03 93.03,0.03 Z M93.03,18.24 C87.81,18.24 85.44,15.09 85.44,10.95 C85.44,6.84 87.81,3.69 93.03,3.69 C98.25,3.69 100.62,6.84 100.62,10.95 C100.62,15.09 98.25,18.24 93.03,18.24 Z" id="形状" fill="#FFFFFF"></path>
                <polygon id="路径" fill="#FFFFFF" points="108.54 0.45 108.54 21.45 113.37 21.45 113.37 0.45"></polygon>
                <polygon id="路径" fill="#FFFFFF" points="134.61 0.45 134.61 15.48 122.97 0.45 117.57 0.45 117.57 21.45 122.4 21.45 122.4 6.45 134.04 21.45 139.47 21.45 139.47 0.45"></polygon>
                <polygon id="路径" fill="#FFFFFF" points="171.6 0.45 150.87 0.45 150.87 4.17 158.82 4.17 158.82 21.45 163.65 21.45 163.65 4.17 171.6 4.17"></polygon>
                <polygon id="路径" fill="#FFFFFF" points="174.6 0.45 174.6 21.45 179.43 21.45 179.43 0.45"></polygon>
                <polygon id="路径" fill="#FFFFFF" points="203.16 0.45 182.43 0.45 182.43 4.17 190.38 4.17 190.38 21.45 195.21 21.45 195.21 4.17 203.16 4.17"></polygon>
                <polygon id="路径" fill="#FFFFFF" points="224.61 17.73 211.02 17.73 211.02 0.45 206.16 0.45 206.16 21.45 224.61 21.45"></polygon>
                <path d="M245.52,8.82 L227.91,8.82 L227.91,12.51 L245.52,12.51 L245.52,8.82 Z M227.91,17.73 L227.91,21.45 L246.66,21.45 L246.66,17.73 L227.91,17.73 Z M246.36,0.45 L227.91,0.45 L227.91,4.14 L246.36,4.14 L246.36,0.45 Z" id="形状" fill="#FFFFFF"></path>
                <polygon id="路径" fill="#EBC28E" points="268.41 4.17 268.41 0.45 249.96 0.45 249.96 21.45 254.79 21.45 254.79 13.08 267.54 13.08 267.54 9.39 254.79 9.39 254.79 4.17"></polygon>
                <polygon id="路径" fill="#EBC28E" points="271.41 0.45 271.41 21.45 276.24 21.45 276.24 0.45"></polygon>
            </g>
        </g>
    </g>
</svg>