<svg width="24" height="22" viewBox="0 0 24 22" fill="none" xmlns="http://www.w3.org/2000/svg">
<g id="wallet-svgrepo-com">
<path id="&#229;&#189;&#162;&#231;&#138;&#182;" fill-rule="evenodd" clip-rule="evenodd" d="M2 0H22C23.1046 0 24 0.94709 24 2.11538V3.99385C23.4526 3.46845 22.7392 3.17868 22 3.18154V2.11538H2V3.18154C1.26083 3.17868 0.547388 3.46845 0 3.99385V2.11538C0 0.94709 0.89543 0 2 0ZM2 4.23077H22C23.1046 4.23077 24 5.17786 24 6.34615V8.22462C23.4526 7.69921 22.7392 7.40945 22 7.41231V6.34615H2V7.41231C1.26083 7.40945 0.547388 7.69921 0 8.22462V6.34615C0 5.17786 0.89543 4.23077 2 4.23077ZM22 8.46154H16C15.9218 10.7197 14.1355 12.4881 12 12.4215C9.86446 12.4881 8.0782 10.7197 8 8.46154H2C1.46957 8.46154 0.960859 8.68441 0.585786 9.08112C0.210714 9.47783 0 10.0159 0 10.5769V19.8846C0 20.4457 0.210714 20.9837 0.585786 21.3804C0.960859 21.7771 1.46957 22 2 22H22C23.1046 22 24 21.0529 24 19.8846V10.5769C24 9.40863 23.1046 8.46154 22 8.46154ZM2 10.5769V19.8846H22V10.5769H17.632C16.7038 12.9968 14.4689 14.5683 12 14.5369C9.53248 14.5636 7.2998 12.9937 6.368 10.5769H2Z" fill="#0B0B0F"/>
</g>
</svg>
